<svg height="512pt" viewBox="-17 0 511 512" width="512pt" xmlns="http://www.w3.org/2000/svg"><path d="m269.859375 242c-107.804687 0-196.519531 52.246094-208.507813 119.484375 66.148438-24.789063 139.71875-23.855469 206.339844 4.703125 59.621094 25.535156 125.816406 26.777344 186.375 3.503906l24.054688-9.253906c-12.726563-66.726562-101.023438-118.4375-208.261719-118.4375zm0 0"/><path d="m464.847656 397.699219c-67.882812 26.117187-142.136718 24.710937-208.960937-3.941407-62.875-26.945312-132.632813-26.105468-194.207031.140626 12.957031 66.5625 101.125 118.101562 208.179687 118.101562 107.816406 0 196.542969-52.257812 208.515625-119.507812zm0 0"/><path d="m112.011719 251.917969c3.394531-12.535157 7.464843-24.957031 12.675781-37.109375 25.535156-59.621094 26.777344-129.941406 3.503906-190.5l-9.253906-24.054688c-66.726562 12.726563-118.4375 105.148438-118.4375 212.386719 0 52.382813 12.410156 100.171875 32.804688 136.960937 9.160156-39.121093 37.644531-73.207031 78.707031-97.683593zm0 0"/><path d="m149.765625 233.605469c35.113281-13.738281 75.988281-21.605469 120.09375-21.605469.210937 0 .410156.019531.621094.019531-.203125-107.53125-52.367188-200.070312-119.488281-212.019531l5.207031 13.527344c26.117187 67.882812 24.710937 146.261718-3.941407 213.085937-.984374 2.296875-1.582031 4.679688-2.492187 6.992188zm0 0"/></svg>